# xmcd CD database file
#
# Track frame offsets:
#	150
#	3420
#	63110
#	109280
#	172340
#	214707
#	248195
#
# Disc length: 4083 seconds
#
# Revision: 0
# Processed by: cddbd v1.5.2PL0 Copyright (c) Steve Scherf et al.
# Submitted via: CDex 1.70beta2
#
DISCID=5e0ff107
DTITLE=Valery Ponomarev - Live At Sweet Basil
DYEAR=1994
DGENRE=Jazz
TTITLE0=Announcement
TTITLE1=Valery'S Changes
TTITLE2=Be Careful Of Dreams
TTITLE3=Friend Or Foe
TTITLE4=Theme For Ernie
TTITLE5=My Alter Ego
TTITLE6=Shocking News
EXTD=YEAR: 1994
EXTT0=
EXTT1=
EXTT2=
EXTT3=
EXTT4=
EXTT5=
EXTT6=
PLAYORDER=
